<svg width="48" height="48" viewBox="0 0 48 48" fill="none" xmlns="http://www.w3.org/2000/svg">
<rect width="48" height="48" rx="16" fill="#EFF6FF"/>
<path d="M12.25 22.475C12.25 20.5081 12.6841 18.7035 13.5524 17.0612C14.4207 15.4188 15.5866 14.0568 17.05 12.975L18.775 15.325C17.675 16.125 16.7958 17.15 16.1375 18.4C15.4792 19.65 15.15 21.0083 15.15 22.475H12.25ZM32.85 22.475C32.85 21.0083 32.5208 19.65 31.8625 18.4C31.2042 17.15 30.325 16.125 29.225 15.325L30.95 12.975C32.4134 14.0568 33.5793 15.4188 34.4476 17.0612C35.3159 18.7035 35.75 20.5081 35.75 22.475H32.85ZM15.15 31.75V28.6H16.85V22.45C16.85 20.85 17.3125 19.4083 18.2375 18.125C19.1625 16.8416 20.3917 16.0083 21.925 15.625V15.125C21.925 14.5486 22.125 14.0587 22.525 13.6552C22.925 13.2517 23.4167 13.05 24 13.05C24.5833 13.05 25.075 13.2517 25.475 13.6552C25.875 14.0587 26.075 14.5486 26.075 15.125V15.625C27.625 16.0083 28.8583 16.8375 29.775 18.1125C30.6917 19.3875 31.15 20.8333 31.15 22.45V28.6H32.85V31.75H15.15ZM24.025 35.025C23.3925 35.025 22.851 34.8022 22.4006 34.3567C21.9502 33.9112 21.725 33.3756 21.725 32.75H26.3C26.3 33.3833 26.0772 33.9208 25.6317 34.3625C25.1862 34.8041 24.6506 35.025 24.025 35.025ZM20 28.6H28V22.45C28 21.35 27.6083 20.4083 26.825 19.625C26.0417 18.8416 25.1 18.45 24 18.45C22.9 18.45 21.9583 18.8416 21.175 19.625C20.3917 20.4083 20 21.35 20 22.45V28.6Z" fill="#3B82F6"/>
</svg>
