<svg width="48" height="48" viewBox="0 0 48 48" fill="none" xmlns="http://www.w3.org/2000/svg">
<path d="M17.3 34.85C16.4167 34.85 15.6709 34.5459 15.0625 33.9375C14.4542 33.3292 14.15 32.5834 14.15 31.7V18.3C14.15 17.4167 14.4542 16.6709 15.0625 16.0625C15.6709 15.4542 16.4167 15.15 17.3 15.15H18V13.15H20.575V15.15H27.425V13.15H30V15.15H30.7C31.5834 15.15 32.3292 15.4542 32.9375 16.0625C33.5459 16.6709 33.85 17.4167 33.85 18.3V31.7C33.85 32.5834 33.5459 33.3292 32.9375 33.9375C32.3292 34.5459 31.5834 34.85 30.7 34.85H17.3ZM17.3 31.7H30.7V22H17.3V31.7ZM17.3 20H30.7V18.3H17.3V20ZM17.3 20V18.3V20Z" fill="#94A3B8"/>
</svg>
