<svg width="22" height="22" viewBox="0 0 22 22" fill="none" xmlns="http://www.w3.org/2000/svg">
<path d="M9.475 16.225H12.225V9.85H9.475V16.225ZM10.85 8.35C11.2667 8.35 11.6208 8.20541 11.9125 7.91623C12.2042 7.62705 12.35 7.26871 12.35 6.84123C12.35 6.41374 12.2071 6.05833 11.9213 5.775C11.6355 5.49167 11.2813 5.35 10.8588 5.35C10.4363 5.35 10.0792 5.49291 9.7875 5.77873C9.49583 6.06455 9.35 6.41871 9.35 6.84123C9.35 7.26374 9.49583 7.62083 9.7875 7.9125C10.0792 8.20417 10.4333 8.35 10.85 8.35ZM10.85 21.7C9.33333 21.7 7.91677 21.416 6.60032 20.8479C5.28386 20.2799 4.13872 19.5089 3.16491 18.5351C2.19109 17.5613 1.42015 16.4161 0.85209 15.0997C0.28403 13.7832 0 12.3667 0 10.85C0 9.33333 0.28403 7.91677 0.85209 6.60031C1.42015 5.28386 2.19109 4.13872 3.16491 3.1649C4.13872 2.19109 5.28386 1.42015 6.60032 0.85209C7.91677 0.28403 9.33333 0 10.85 0C12.3667 0 13.7832 0.28403 15.0997 0.85209C16.4161 1.42015 17.5613 2.19109 18.5351 3.1649C19.5089 4.13872 20.2799 5.28386 20.8479 6.60031C21.416 7.91677 21.7 9.33333 21.7 10.85C21.7 12.3667 21.416 13.7832 20.8479 15.0997C20.2799 16.4161 19.5089 17.5613 18.5351 18.5351C17.5613 19.5089 16.4161 20.2799 15.0997 20.8479C13.7832 21.416 12.3667 21.7 10.85 21.7ZM10.85 18.55C13.0167 18.55 14.8417 17.8083 16.325 16.325C17.8083 14.8417 18.55 13.0167 18.55 10.85C18.55 8.68333 17.8083 6.85833 16.325 5.375C14.8417 3.89167 13.0167 3.15 10.85 3.15C8.68333 3.15 6.85833 3.89167 5.375 5.375C3.89167 6.85833 3.15 8.68333 3.15 10.85C3.15 13.0167 3.89167 14.8417 5.375 16.325C6.85833 17.8083 8.68333 18.55 10.85 18.55Z" fill="#F59E0B"/>
</svg>
