<svg width="48" height="48" viewBox="0 0 48 48" fill="none" xmlns="http://www.w3.org/2000/svg">
<path d="M20.525 34.85L20.075 31.375C19.9916 31.3417 19.9083 31.3 19.825 31.25C19.7416 31.2 19.6583 31.15 19.575 31.1L16.35 32.475L12.85 26.375L15.625 24.275C15.625 24.225 15.625 24.1792 15.625 24.1375C15.625 24.0959 15.625 24.05 15.625 24C15.625 23.95 15.625 23.9042 15.625 23.8625C15.625 23.8209 15.625 23.775 15.625 23.725L12.85 21.625L16.35 15.575L19.625 16.925C19.7083 16.875 19.7833 16.8292 19.85 16.7875C19.9166 16.7459 19.9916 16.7084 20.075 16.675L20.525 13.15H27.475L27.925 16.675C28.0083 16.7084 28.0916 16.7459 28.175 16.7875C28.2583 16.8292 28.3416 16.875 28.425 16.925L31.65 15.575L35.15 21.625L32.35 23.725C32.35 23.775 32.35 23.8209 32.35 23.8625C32.35 23.9042 32.35 23.95 32.35 24C32.35 24.05 32.3458 24.0959 32.3375 24.1375C32.3291 24.1792 32.325 24.225 32.325 24.275L35.125 26.375L31.6 32.475L28.375 31.1C28.2916 31.15 28.2166 31.2 28.15 31.25C28.0833 31.3 28.0083 31.3417 27.925 31.375L27.475 34.85H20.525ZM23.275 31.7H24.675L25.05 29.1C25.5833 28.9667 26.0916 28.7667 26.575 28.5C27.0583 28.2334 27.4833 27.8834 27.85 27.45L30.3 28.475L30.975 27.225L28.9 25.65C28.9833 25.3834 29.05 25.1125 29.1 24.8375C29.15 24.5625 29.175 24.2834 29.175 24C29.175 23.7167 29.15 23.4375 29.1 23.1625C29.05 22.8875 28.9833 22.6167 28.9 22.35L31.025 20.775L30.3 19.525L27.875 20.575C27.5083 20.1417 27.0833 19.7834 26.6 19.5C26.1166 19.2167 25.6 19.0167 25.05 18.9L24.725 16.3H23.275L22.975 18.875C22.4083 18.9917 21.8791 19.1917 21.3875 19.475C20.8958 19.7584 20.4583 20.1167 20.075 20.55L17.675 19.525L16.975 20.775L19.025 22.3C18.9416 22.5834 18.875 22.8625 18.825 23.1375C18.775 23.4125 18.75 23.7 18.75 24C18.75 24.2834 18.775 24.5667 18.825 24.85C18.875 25.1334 18.9416 25.4167 19.025 25.7L16.975 27.225L17.675 28.475L20.075 27.45C20.4583 27.8667 20.9 28.2167 21.4 28.5C21.9 28.7834 22.425 28.9917 22.975 29.125L23.275 31.7ZM23.975 27.5C24.9416 27.5 25.7666 27.1584 26.45 26.475C27.1333 25.7917 27.475 24.9667 27.475 24C27.475 23.0334 27.1333 22.2084 26.45 21.525C25.7666 20.8417 24.9416 20.5 23.975 20.5C23.0083 20.5 22.1833 20.8417 21.5 21.525C20.8166 22.2084 20.475 23.0334 20.475 24C20.475 24.9667 20.8166 25.7917 21.5 26.475C22.1833 27.1584 23.0083 27.5 23.975 27.5Z" fill="#94A3B8"/>
</svg>
