<svg width="11" height="13" viewBox="0 0 11 13" fill="none" xmlns="http://www.w3.org/2000/svg">
<path d="M3.5 1.16667V0H7V1.16667H3.5ZM4.66667 7.58333H5.83333V4.08333H4.66667V7.58333ZM5.25 12.25C4.53056 12.25 3.85243 12.1115 3.21563 11.8344C2.57882 11.5573 2.02222 11.1806 1.54583 10.7042C1.06944 10.2278 0.692708 9.67118 0.415625 9.03438C0.138542 8.39757 0 7.71944 0 7C0 6.28056 0.138542 5.60243 0.415625 4.96562C0.692708 4.32882 1.06944 3.77222 1.54583 3.29583C2.02222 2.81944 2.57882 2.44271 3.21563 2.16563C3.85243 1.88854 4.53056 1.75 5.25 1.75C5.85278 1.75 6.43125 1.84722 6.98542 2.04167C7.53958 2.23611 8.05972 2.51806 8.54583 2.8875L9.3625 2.07083L10.1792 2.8875L9.3625 3.70417C9.73195 4.19028 10.0139 4.71042 10.2083 5.26458C10.4028 5.81875 10.5 6.39722 10.5 7C10.5 7.71944 10.3615 8.39757 10.0844 9.03438C9.80729 9.67118 9.43056 10.2278 8.95417 10.7042C8.47778 11.1806 7.92118 11.5573 7.28438 11.8344C6.64757 12.1115 5.96944 12.25 5.25 12.25ZM5.25 11.0833C6.37778 11.0833 7.34028 10.6847 8.1375 9.8875C8.93472 9.09028 9.33333 8.12778 9.33333 7C9.33333 5.87222 8.93472 4.90972 8.1375 4.1125C7.34028 3.31528 6.37778 2.91667 5.25 2.91667C4.12222 2.91667 3.15972 3.31528 2.3625 4.1125C1.56528 4.90972 1.16667 5.87222 1.16667 7C1.16667 8.12778 1.56528 9.09028 2.3625 9.8875C3.15972 10.6847 4.12222 11.0833 5.25 11.0833Z" fill="#94A3B8"/>
</svg>
