<svg width="8" height="13" viewBox="0 0 8 13" fill="none" xmlns="http://www.w3.org/2000/svg">
<path d="M0.583333 12.5417L2.21667 4.31667L1.16667 4.725V6.70833H0V3.96667L2.94583 2.7125C3.08194 2.65417 3.22535 2.62014 3.37604 2.61042C3.52674 2.60069 3.67014 2.62014 3.80625 2.66875C3.94236 2.71736 4.07118 2.78542 4.19271 2.87292C4.31424 2.96042 4.41389 3.07222 4.49167 3.20833L5.075 4.14167C5.32778 4.55 5.67049 4.88542 6.10313 5.14792C6.53576 5.41042 7.02917 5.54167 7.58333 5.54167V6.70833C6.90278 6.70833 6.29514 6.56736 5.76042 6.28542C5.22569 6.00347 4.76875 5.64375 4.38958 5.20625L4.025 7L5.25 8.16667V12.5417H4.08333V8.75L2.85833 7.81667L1.80833 12.5417H0.583333ZM4.375 2.33333C4.05417 2.33333 3.77951 2.2191 3.55104 1.99063C3.32257 1.76215 3.20833 1.4875 3.20833 1.16667C3.20833 0.845833 3.32257 0.571181 3.55104 0.342708C3.77951 0.114236 4.05417 0 4.375 0C4.69583 0 4.97049 0.114236 5.19896 0.342708C5.42743 0.571181 5.54167 0.845833 5.54167 1.16667C5.54167 1.4875 5.42743 1.76215 5.19896 1.99063C4.97049 2.2191 4.69583 2.33333 4.375 2.33333Z" fill="#94A3B8"/>
</svg>
